<?xml version="1.0" encoding="UTF-8"?>
<svg id="Layer_1" data-name="Layer 1" xmlns="http://www.w3.org/2000/svg" xmlns:xlink="http://www.w3.org/1999/xlink" viewBox="0 0 1567.46 300">
  <defs>
    <style>
      .cls-1 {
        clip-path: url(#clippath);
      }

      .cls-2 {
        fill: none;
      }

      .cls-2, .cls-3, .cls-4 {
        stroke-width: 0px;
      }

      .cls-3 {
        fill: url(#linear-gradient);
      }

      .cls-4 {
        fill: #002936;
      }
    </style>
    <clipPath id="clippath">
      <rect class="cls-2" y="0" width="1567.46" height="300"/>
    </clipPath>
    <linearGradient id="linear-gradient" x1="310.62" y1="202.68" x2="1567.4" y2="202.68" gradientTransform="translate(0 302) scale(1 -1)" gradientUnits="userSpaceOnUse">
      <stop offset="0" stop-color="#ff6b07"/>
      <stop offset="1" stop-color="#ffcf5e"/>
    </linearGradient>
  </defs>
  <g class="cls-1">
    <g>
      <path class="cls-4" d="M247.84,75.2v-.03c0-.65-.1-1.27-.26-1.89-.03-.16-.1-.36-.16-.52-.13-.46-.33-.91-.55-1.3-.1-.16-.16-.33-.26-.49-.33-.52-.68-1.01-1.11-1.47v-.03c-.46-.46-.98-.85-1.53-1.17-.07-.03-.1-.1-.16-.13L127.6,1.1c-2.54-1.47-5.63-1.47-8.17,0L4.04,68.17c-2.51,1.47-4.04,4.17-4.04,7.07s1.56,5.6,4.07,7.03l51.41,29.69-24.19,14.07c-.59.36-1.07.75-1.53,1.2-.13.13-.23.26-.36.39-.33.36-.62.75-.88,1.14-.1.16-.2.29-.29.46-.29.52-.52,1.07-.68,1.63,0,.03,0,.07-.03.1-.16.62-.23,1.27-.26,1.89v107.41c0,2.9,1.53,5.57,4.04,7.03l86.97,50.53c1.53,1.4,3.48,2.15,5.5,2.15h.23c1.6.1,2.93-.33,4.23-1.08.52-.29,1.01-.65,1.43-1.04l86.96-50.53c2.51-1.46,4.04-4.13,4.04-7.03v-104.81c0-4.85-.32-7.49-3.68-9.41l-24.26-14.1,38.84-22.56v77.17c0,2.41,1.95,4.4,4.39,4.4h7.52c2.41,0,4.4-1.95,4.4-4.4v-91.3l-.03-.07ZM43.47,235.59v-88.37l72.12,41.9.29,88.56-72.44-42.1h.03ZM204.34,235.59l-72.15,41.94-.29-88.2,72.48-42.1v88.37h-.03ZM196.46,132.96l-72.57,42.16-72.38-42.07,20.19-11.72,48.48,28c1.27.72,2.67,1.07,4.07,1.07s2.83-.36,4.1-1.11l48.12-27.97,19.96,11.59.03.03ZM124.28,132.87L24.39,75.2,123.56,17.57l99.89,57.66-99.18,57.63Z"/>
      <path class="cls-3" d="M403.67,106.76c2.28,3.88,3.42,8.76,3.42,14.59,0,6.48-1.82,12.47-5.5,17.94-3.68,5.47-9.15,9.87-16.41,13.15-7.29,3.29-16.44,4.95-27.51,4.95-9.15,0-17.94-1.14-26.4-3.42-8.47-2.28-15.34-5.24-20.64-8.86l10.35-23.28c4.98,3.19,10.78,5.83,17.29,7.88,6.54,2.08,13.06,3.12,19.54,3.12,4.36,0,7.88-.39,10.52-1.2,2.67-.81,4.59-1.86,5.83-3.19,1.24-1.33,1.82-2.9,1.82-4.72,0-2.54-1.17-4.56-3.52-6.06-2.34-1.5-5.37-2.7-9.08-3.68-3.71-.94-7.85-1.92-12.37-2.87-4.52-.94-9.05-2.18-13.54-3.68-4.53-1.5-8.63-3.42-12.37-5.83-3.71-2.38-6.74-5.53-9.08-9.41-2.34-3.87-3.52-8.79-3.52-14.75,0-6.71,1.82-12.76,5.5-18.17,3.68-5.44,9.18-9.77,16.51-13.09,7.33-3.29,16.48-4.95,27.42-4.95,7.33,0,14.52.81,21.62,2.47,7.07,1.66,13.38,4.07,18.88,7.26l-9.73,23.44c-5.31-2.87-10.58-5.01-15.79-6.45-5.21-1.43-10.26-2.15-15.14-2.15-4.36,0-7.88.46-10.52,1.37-2.67.91-4.56,2.08-5.73,3.58-1.17,1.5-1.76,3.19-1.76,5.11,0,2.44,1.14,4.4,3.42,5.83,2.28,1.43,5.31,2.6,9.08,3.52,3.78.91,7.91,1.82,12.44,2.8,4.53.94,9.02,2.15,13.54,3.58,4.52,1.43,8.63,3.35,12.37,5.73,3.71,2.41,6.71,5.54,9.02,9.41h.07ZM525.09,43.56l-38.19,64.5-39.3-64.5h-25.98v111.61h29.17v-57.56l28.55,46.56h14.03l28.75-48.22.29,59.23h29.01l-.33-111.61h-26.02ZM640.71,43.56l49.42,111.61h-32.85l-8.69-21.68h-47.34l-8.69,21.68h-32.2l49.26-111.61h31.09ZM639.24,110.21l-14.33-35.69-14.33,35.69h28.65ZM777.75,119.98l24.16,35.2h-33.8l-20.25-29.66h-17.22v29.66h-31.58V43.56h51.02c10.19,0,19.01,1.66,26.4,4.95s13.09,8.04,17.13,14.26c4.04,6.22,6.06,13.58,6.06,22.08s-2.02,15.66-6.06,21.75c-3.81,5.73-9.12,10.16-15.86,13.38ZM748.18,68.44h-17.55v32.69h17.55c6.58,0,11.49-1.43,14.75-4.3,3.26-2.87,4.85-6.87,4.85-11.95s-1.63-9.25-4.85-12.11c-3.26-2.87-8.17-4.3-14.75-4.3v-.03ZM804.93,68.6h34.28v86.57h31.58v-86.57h34.12v-25.04h-99.99v25.04ZM1012.73,109.33c2.86,4.3,4.29,9.64,4.29,16.02,0,9.47-3.48,16.8-10.45,22.01-6.97,5.21-17.45,7.81-31.48,7.81h-51.35V43.56h48.16c12.44,0,22.08,2.51,28.94,7.49,6.87,4.98,10.29,12.08,10.29,21.2,0,6.06-1.4,11.17-4.23,15.3-2.83,4.14-6.64,7.29-11.49,9.41-.49.23-1.01.39-1.53.59,2.41.52,4.69,1.17,6.78,2.05,5.14,2.18,9.18,5.44,12.04,9.74h.04ZM935.53,53.27v40.5h35.55c8.92,0,15.86-1.69,20.8-5.11,4.95-3.39,7.42-8.47,7.42-15.14s-2.47-11.88-7.42-15.24c-4.95-3.35-11.88-5.01-20.8-5.01h-35.55ZM1005.21,124.41c0-7.23-2.61-12.5-7.82-15.86-5.21-3.35-12.7-5.01-22.5-5.01h-39.4v41.94h39.4c9.77,0,17.26-1.66,22.5-5.01,5.21-3.35,7.82-8.69,7.82-16.02v-.03ZM1055.77,43.56h-11.79v111.61h74.3v-10.19h-62.51V43.56ZM1238.59,76.71c2.93,6.9,4.4,14.46,4.4,22.63s-1.47,15.73-4.4,22.66c-2.93,6.9-7.03,12.93-12.28,18-5.24,5.08-11.46,9.05-18.59,11.88-7.13,2.83-14.88,4.23-23.28,4.23s-16.18-1.4-23.34-4.23c-7.16-2.83-13.38-6.8-18.66-11.95-5.27-5.14-9.34-11.17-12.27-18-2.93-6.87-4.4-14.39-4.4-22.56s1.47-15.69,4.4-22.56c2.93-6.87,7.03-12.86,12.27-18.01,5.28-5.14,11.46-9.15,18.59-11.95,7.13-2.8,14.95-4.23,23.45-4.23s16.15,1.4,23.28,4.23c7.13,2.83,13.31,6.77,18.59,11.88,5.27,5.11,9.34,11.1,12.27,18.01l-.03-.03ZM1231.17,99.37c0-6.71-1.18-12.83-3.52-18.43-2.34-5.57-5.6-10.48-9.8-14.68-4.2-4.2-9.15-7.46-14.82-9.74-5.69-2.28-11.88-3.42-18.59-3.42s-12.92,1.14-18.65,3.42c-5.73,2.28-10.71,5.54-14.91,9.74-4.2,4.2-7.49,9.08-9.9,14.68-2.38,5.57-3.58,11.72-3.58,18.43s1.2,12.7,3.58,18.33c2.41,5.63,5.7,10.55,9.9,14.75,4.2,4.2,9.18,7.46,14.91,9.74,5.73,2.28,11.95,3.42,18.65,3.42s12.9-1.14,18.59-3.42c5.7-2.28,10.62-5.54,14.82-9.74,4.2-4.2,7.46-9.08,9.8-14.69,2.34-5.57,3.52-11.72,3.52-18.43v.03ZM1284.76,66.29c4.23-4.2,9.25-7.46,14.98-9.74,5.73-2.28,11.94-3.42,18.65-3.42s12.34,1.04,17.88,3.13c5.53,2.08,10.58,5.44,15.14,10.13l7.49-7.49c-4.89-5.44-10.91-9.47-18.01-12.21-7.13-2.7-14.72-4.07-22.79-4.07s-16.15,1.4-23.28,4.23c-7.13,2.83-13.32,6.77-18.59,11.88-5.28,5.11-9.35,11.1-12.28,18.01-2.93,6.9-4.39,14.46-4.39,22.63s1.46,15.73,4.39,22.66c2.93,6.9,7,12.93,12.21,18.01,5.21,5.11,11.37,9.05,18.5,11.88,7.13,2.83,14.88,4.23,23.28,4.23s15.82-1.37,22.95-4.13c7.13-2.77,13.12-6.87,18.01-12.27l-7.49-7.49c-4.56,4.69-9.64,8.07-15.14,10.19-5.54,2.12-11.5,3.19-17.88,3.19-6.71,0-12.92-1.14-18.65-3.42-5.73-2.28-10.75-5.54-14.98-9.74-4.27-4.2-7.59-9.08-9.96-14.68-2.38-5.57-3.59-11.72-3.59-18.43s1.21-12.83,3.59-18.43c2.4-5.57,5.69-10.48,9.96-14.68v.03ZM1474.97,43.56h-13.55l-65.54,67.4V43.56h-11.78v111.61h11.78v-29.37l22.86-23.15,45.55,52.49h14.03l-51.6-61.02,48.25-50.6v.03ZM1563.73,111.48c-2.51-3.61-5.8-6.51-9.9-8.69-4.11-2.18-8.57-3.97-13.38-5.34-4.86-1.37-9.71-2.67-14.59-3.81-4.88-1.14-9.38-2.51-13.48-3.97-4.1-1.5-7.39-3.55-9.9-6.22-2.51-2.67-3.74-6.15-3.74-10.52,0-3.81,1.04-7.26,3.12-10.29,2.09-3.03,5.28-5.44,9.64-7.26,4.36-1.82,9.9-2.7,16.57-2.7,5.02,0,10.19.75,15.57,2.25,5.37,1.5,10.45,3.84,15.23,7.03l3.98-9.41c-4.46-3.09-9.77-5.5-15.96-7.26-6.18-1.76-12.37-2.64-18.65-2.64-9.48,0-17.23,1.4-23.28,4.23-6.06,2.83-10.55,6.54-13.48,11.17-2.93,4.62-4.4,9.7-4.4,15.24,0,5.96,1.24,10.78,3.75,14.42,2.5,3.68,5.79,6.61,9.89,8.86,4.11,2.25,8.6,4,13.48,5.34,4.89,1.33,9.77,2.57,14.69,3.74,4.88,1.17,9.34,2.54,13.38,4.07,4.04,1.53,7.29,3.65,9.8,6.28,2.51,2.67,3.74,6.15,3.74,10.52,0,3.61-1.04,6.9-3.12,9.9-2.09,2.99-5.31,5.34-9.74,7.1-4.43,1.76-10.12,2.64-17.16,2.64s-14.32-1.3-20.96-3.91c-6.65-2.6-11.95-5.83-15.86-9.64l-4.62,9.08c4.13,4.27,10.02,7.75,17.61,10.45,7.59,2.7,15.53,4.07,23.83,4.07,9.58,0,17.42-1.4,23.51-4.23,6.12-2.83,10.65-6.54,13.64-11.17,2.97-4.62,4.46-9.64,4.46-15.07,0-5.83-1.23-10.58-3.74-14.19l.07-.06Z"/>
      <path class="cls-4" d="M341.29,212.16c-2.74-1.55-5.79-2.3-9.19-2.3-3.05,0-5.75.66-8.05,2.03-1.1.62-2.03,1.46-2.92,2.39v-17.64h-10.52v50.08h10.08v-4.24c.93,1.11,1.95,2.03,3.18,2.74,2.3,1.37,5.04,2.03,8.22,2.03,3.4,0,6.5-.8,9.19-2.34,2.74-1.55,4.86-3.71,6.5-6.5,1.64-2.78,2.39-6.06,2.39-9.86s-.8-7.12-2.39-9.9c-1.59-2.78-3.76-4.95-6.5-6.5ZM338.24,233.91c-.84,1.5-1.94,2.65-3.32,3.49-1.37.79-2.92,1.24-4.69,1.24s-3.32-.4-4.73-1.24c-1.41-.8-2.52-1.99-3.32-3.49-.79-1.5-1.24-3.32-1.24-5.35s.4-3.93,1.24-5.39c.8-1.5,1.9-2.65,3.32-3.45,1.37-.8,2.96-1.24,4.73-1.24s3.32.4,4.69,1.24c1.37.79,2.48,1.95,3.32,3.45.84,1.5,1.24,3.27,1.24,5.39s-.4,3.85-1.24,5.35Z"/>
      <path class="cls-4" d="M373.88,235.06l-10.21-24.66h-10.87l15.74,36.6-.13.31c-.71,1.64-1.5,2.79-2.39,3.49s-2.08,1.06-3.54,1.06c-1.02,0-2.08-.22-3.14-.62-1.06-.4-1.99-.97-2.79-1.68l-3.85,7.51c1.15,1.02,2.7,1.86,4.51,2.43,1.81.58,3.71.88,5.61.88,2.21,0,4.2-.35,6.06-1.02,1.81-.66,3.49-1.86,4.99-3.49,1.5-1.63,2.83-3.98,4.02-6.9l16.4-38.54h-10.12l-10.25,24.67-.04-.04Z"/>
      <path class="cls-4" d="M433.3,227.01h21.97v-8.53h-21.97v-10.26h24.84v-8.75h-35.71v47.25h36.6v-8.8h-25.73v-10.92Z"/>
      <path class="cls-4" d="M513.95,199.48l-17.42,29.31-17.68-29.31h-9.06v47.25h10.26v-27.76l13.83,22.76h4.95l13.88-23.38.09,28.38h10.26l-.13-47.25h-8.97Z"/>
      <path class="cls-4" d="M567.88,225.51c0,4.51-.93,7.74-2.78,9.72-1.86,1.99-4.42,2.96-7.78,2.96s-5.92-.97-7.78-2.96c-1.86-1.99-2.78-5.21-2.78-9.72v-26.08h-10.92v26.48c0,6.94,1.9,12.24,5.66,16,3.8,3.76,9.02,5.61,15.74,5.61s11.93-1.86,15.74-5.61c3.8-3.71,5.66-9.06,5.66-16v-26.48h-10.79v26.08h.04Z"/>
      <path class="cls-4" d="M622.9,231.52c3.05-1.37,5.44-3.32,7.07-5.83,1.68-2.56,2.52-5.57,2.52-9.06s-.84-6.63-2.52-9.19c-1.68-2.56-4.02-4.55-7.07-5.92s-6.72-2.08-10.92-2.08h-20.47v47.25h10.92v-13.17h9.99l9.06,13.17h11.8l-10.56-15.16h.18ZM618.92,210.53c1.68,1.46,2.48,3.45,2.48,6.06s-.84,4.6-2.48,6.06c-1.68,1.46-4.2,2.21-7.56,2.21h-8.93v-16.49h8.93c3.36,0,5.88.71,7.56,2.17Z"/>
      <path class="cls-4" d="M655.53,212.16c1.37-1.37,3-2.39,4.91-3.09,1.9-.71,3.98-1.06,6.28-1.06s4.6.44,6.63,1.33c2.03.88,3.89,2.21,5.61,4.02l7.03-6.5c-2.3-2.65-5.13-4.68-8.49-6.06-3.36-1.41-7.12-2.08-11.32-2.08-3.8,0-7.25.62-10.39,1.77s-5.88,2.87-8.22,5.08c-2.34,2.21-4.15,4.77-5.44,7.78-1.28,3.01-1.95,6.23-1.95,9.77s.62,6.81,1.95,9.77c1.33,2.96,3.09,5.57,5.39,7.78,2.3,2.21,5.04,3.89,8.18,5.08,3.14,1.19,6.54,1.77,10.3,1.77,3.36,0,6.76-.53,10.17-1.55,3.4-1.02,6.36-2.52,8.93-4.46v-19.18h-9.99v13.79c-.71.4-1.46.75-2.21,1.02-2.03.71-4.16,1.06-6.32,1.06s-4.29-.35-6.19-1.06c-1.86-.71-3.49-1.77-4.86-3.14-1.37-1.37-2.43-2.96-3.18-4.82-.75-1.86-1.1-3.89-1.1-6.06s.35-4.29,1.1-6.14c.75-1.86,1.81-3.45,3.18-4.77v-.04Z"/>
      <path class="cls-4" d="M738.59,205.62c-2.3-2.21-5.04-3.93-8.18-5.13-3.14-1.24-6.54-1.81-10.3-1.81s-7.12.62-10.26,1.81c-3.14,1.19-5.88,2.92-8.22,5.13-2.34,2.21-4.16,4.77-5.44,7.78-1.28,3.01-1.95,6.23-1.95,9.72s.62,6.76,1.95,9.73c1.33,2.96,3.09,5.57,5.39,7.78,2.3,2.21,5.04,3.93,8.22,5.13,3.18,1.19,6.63,1.81,10.39,1.81s7.12-.62,10.21-1.81c3.14-1.24,5.84-2.92,8.18-5.08,2.3-2.17,4.11-4.77,5.44-7.78,1.28-3.01,1.94-6.23,1.94-9.77s-.66-6.81-1.94-9.77c-1.33-2.96-3.14-5.53-5.44-7.74ZM733.78,229.23c-.75,1.86-1.77,3.45-3.14,4.77-1.37,1.37-2.92,2.39-4.69,3.09s-3.71,1.06-5.83,1.06-4.07-.35-5.88-1.06c-1.81-.71-3.36-1.77-4.68-3.09-1.33-1.37-2.34-2.96-3.09-4.82-.75-1.86-1.1-3.89-1.1-6.1s.35-4.29,1.1-6.14c.75-1.86,1.77-3.45,3.14-4.77,1.37-1.37,2.92-2.39,4.69-3.09,1.77-.71,3.71-1.06,5.83-1.06s4.07.35,5.88,1.06c1.81.71,3.36,1.77,4.69,3.09,1.33,1.37,2.34,2.96,3.09,4.77.75,1.86,1.1,3.89,1.1,6.14s-.35,4.29-1.1,6.14Z"/>
      <path class="cls-4" d="M792.21,199.48l-21.09,47.25h11.23l4.2-10.12h21.92l4.2,10.12h11.49l-21.13-47.25h-10.83ZM790,228.3l7.51-18.08,7.47,18.08h-15.03.04Z"/>
      <path class="cls-4" d="M842.65,219.72c1.46-.8,3.05-1.24,4.86-1.24,1.68,0,3.23.4,4.64,1.24,1.41.8,2.61,2.08,3.54,3.76l8.18-4.38c-1.37-2.96-3.45-5.26-6.28-6.85-2.83-1.59-6.14-2.39-9.99-2.39s-7.38.79-10.48,2.39c-3.05,1.59-5.44,3.8-7.2,6.63-1.72,2.83-2.61,6.06-2.61,9.68s.89,6.81,2.61,9.64c1.72,2.83,4.11,5.04,7.2,6.63,3.09,1.59,6.54,2.39,10.48,2.39s7.16-.8,9.99-2.39,4.95-3.85,6.28-6.76l-8.18-4.46c-.93,1.77-2.12,3.01-3.54,3.8-1.41.8-2.96,1.19-4.64,1.19-1.81,0-3.4-.4-4.86-1.24-1.46-.8-2.56-1.95-3.4-3.45-.84-1.5-1.24-3.27-1.24-5.39s.4-3.93,1.24-5.39c.84-1.5,1.95-2.65,3.4-3.45v.04Z"/>
      <path class="cls-4" d="M886.59,209.87c-2.87,0-5.7.4-8.49,1.15-2.79.75-5.17,1.86-7.16,3.23l3.8,7.34c1.33-1.02,2.87-1.86,4.77-2.48,1.86-.62,3.76-.93,5.7-.93,2.83,0,4.95.62,6.32,1.9,1.37,1.28,2.08,3.01,2.08,5.26h-8.35c-3.67,0-6.67.44-8.97,1.37-2.3.93-3.98,2.21-5.04,3.8-1.06,1.59-1.59,3.49-1.59,5.66s.53,3.93,1.64,5.61c1.06,1.68,2.65,2.96,4.64,3.93,1.99.97,4.46,1.46,7.29,1.46,3.18,0,5.79-.62,7.82-1.81,1.37-.84,2.43-1.95,3.23-3.27v4.55h9.86v-20.73c0-5.53-1.55-9.59-4.6-12.2s-7.38-3.93-12.91-3.93l-.04.09ZM890.48,238.91c-1.41.84-2.96,1.24-4.73,1.24-1.86,0-3.32-.4-4.38-1.19-1.06-.79-1.59-1.86-1.59-3.23,0-1.24.44-2.21,1.37-3.05.93-.84,2.61-1.24,5.08-1.24h7.2v3.71c-.62,1.63-1.63,2.83-3.05,3.67l.09.09Z"/>
      <path class="cls-4" d="M942.33,214.2c-.84-.93-1.77-1.72-2.83-2.34-2.3-1.37-4.95-2.03-8.04-2.03-3.4,0-6.5.75-9.24,2.3-2.74,1.55-4.91,3.71-6.5,6.5-1.59,2.78-2.39,6.1-2.39,9.9s.8,7.07,2.39,9.86c1.59,2.79,3.76,4.95,6.5,6.5,2.74,1.55,5.83,2.34,9.24,2.34,3.18,0,5.92-.66,8.22-2.03,1.19-.71,2.25-1.63,3.14-2.74v4.2h10.08v-50.08h-10.52v17.59l-.04.04ZM941.31,233.91c-.84,1.5-1.95,2.65-3.36,3.49-1.41.8-2.96,1.24-4.64,1.24s-3.32-.4-4.73-1.24c-1.41-.8-2.52-1.99-3.36-3.49-.84-1.5-1.24-3.32-1.24-5.35s.4-3.93,1.24-5.39c.84-1.5,1.95-2.65,3.36-3.45,1.41-.8,2.96-1.24,4.73-1.24s3.27.4,4.64,1.24c1.37.8,2.52,1.95,3.36,3.45.84,1.5,1.24,3.27,1.24,5.39s-.4,3.85-1.24,5.35Z"/>
      <path class="cls-4" d="M990.9,212.12c-2.87-1.5-6.06-2.25-9.64-2.25s-6.98.79-9.95,2.39c-2.92,1.59-5.22,3.8-6.94,6.63-1.68,2.83-2.52,6.06-2.52,9.68s.84,6.81,2.56,9.64c1.72,2.83,4.11,5.04,7.25,6.63,3.14,1.63,6.76,2.43,10.92,2.43,3.27,0,6.19-.49,8.71-1.5,2.52-1.02,4.6-2.47,6.28-4.33l-5.61-6.06c-1.19,1.15-2.56,2.03-4.02,2.65-1.46.57-3.18.88-5.08.88-2.17,0-4.02-.4-5.66-1.19-1.59-.79-2.83-1.94-3.71-3.45-.49-.79-.8-1.72-1.02-2.65h27.45c.04-.44.09-.93.13-1.46,0-.53.04-.97.04-1.37,0-3.93-.84-7.29-2.47-10.08-1.68-2.83-3.93-4.95-6.76-6.5l.04-.09ZM976.58,219.01c1.37-.8,2.96-1.19,4.77-1.19s3.36.4,4.73,1.19c1.37.8,2.39,1.9,3.18,3.27.49.93.8,1.99.93,3.09h-17.77c.18-1.1.44-2.17.93-3.05.75-1.41,1.81-2.52,3.23-3.32Z"/>
      <path class="cls-4" d="M1063.39,211.59c-2.21-1.15-4.77-1.72-7.64-1.72-3.45,0-6.54.84-9.2,2.52-1.54.97-2.78,2.12-3.84,3.45-.84-1.37-1.9-2.52-3.23-3.45-2.47-1.68-5.39-2.52-8.75-2.52-2.96,0-5.62.66-7.91,1.94-1.37.75-2.48,1.77-3.5,2.92v-4.33h-10.07v36.34h10.52v-18.21c0-2.17.35-3.93,1.01-5.35.67-1.42,1.64-2.43,2.83-3.14,1.24-.71,2.61-1.06,4.11-1.06,2.21,0,3.89.71,5.09,2.08,1.19,1.41,1.81,3.54,1.81,6.5v19.18h10.52v-18.21c0-2.17.35-3.93,1.02-5.35.66-1.42,1.63-2.43,2.82-3.14,1.2-.71,2.61-1.06,4.12-1.06,2.21,0,3.93.71,5.12,2.08,1.2,1.41,1.81,3.54,1.81,6.5v19.18h10.53v-20.78c0-3.67-.62-6.72-1.95-9.06-1.28-2.34-3.05-4.11-5.26-5.26l.04-.04Z"/>
      <path class="cls-4" d="M1107.32,210.4l-10.25,24.66-10.21-24.66h-10.88l15.74,36.6-.13.31c-.71,1.64-1.51,2.79-2.39,3.49s-2.08,1.06-3.54,1.06c-1.01,0-2.07-.22-3.14-.62-1.06-.4-1.98-.97-2.78-1.68l-3.85,7.51c1.15,1.02,2.7,1.86,4.51,2.43,1.82.58,3.72.88,5.62.88,2.21,0,4.2-.35,6.05-1.02,1.81-.66,3.49-1.86,5-3.49,1.5-1.63,2.83-3.98,4.02-6.9l16.4-38.54h-10.12l-.05-.04Z"/>
    </g>
  </g>
</svg>